<svg xmlns="http://www.w3.org/2000/svg" xmlns:xlink="http://www.w3.org/1999/xlink" width="512" zoomAndPan="magnify" viewBox="0 0 384 383.999986" height="512" preserveAspectRatio="xMidYMid meet" version="1.0"><defs><g/><clipPath id="81aa95b1f7"><rect x="0" width="299" y="0" height="384"/></clipPath></defs><rect x="-38.4" width="460.8" fill="#ffffff" y="-38.399999" height="460.799983" fill-opacity="1"/><rect x="-38.4" width="460.8" fill="#0d0d0d" y="-38.399999" height="460.799983" fill-opacity="1"/><g transform="matrix(1, 0, 0, 1, 42, 0)"><g clip-path="url(#81aa95b1f7)"><g fill="#ffffff" fill-opacity="1"><g transform="translate(4.562109, 311.02892)"><g><path d="M 100.328125 -193.84375 C 101.453125 -193.84375 104.28125 -192.082031 108.8125 -188.5625 C 113.351562 -185.050781 117.890625 -180.175781 122.421875 -173.9375 C 126.960938 -167.707031 129.234375 -161.644531 129.234375 -155.75 L 129.234375 -98.625 C 129.234375 -94.539062 123.222656 -89.550781 111.203125 -83.65625 C 99.191406 -77.757812 87.570312 -72.941406 76.34375 -69.203125 C 65.125 -65.460938 59.0625 -63.59375 58.15625 -63.59375 C 58.15625 -46.132812 65.75 -35.363281 80.9375 -31.28125 C 88.414062 -29.46875 97.375 -28.5625 107.8125 -28.5625 L 107.8125 -18.703125 C 70.625 -6.234375 50.785156 0 48.296875 0 C 41.492188 0 34.578125 -4.816406 27.546875 -14.453125 C 20.515625 -24.085938 17 -35.367188 17 -48.296875 L 17 -162.5625 C 17 -164.144531 29.921875 -169.753906 55.765625 -179.390625 C 81.617188 -189.023438 96.472656 -193.84375 100.328125 -193.84375 Z M 88.421875 -139.765625 C 88.421875 -146.117188 86.945312 -151.503906 84 -155.921875 C 81.050781 -160.347656 77.304688 -162.5625 72.765625 -162.5625 C 68.234375 -162.5625 63.25 -160.859375 57.8125 -157.453125 L 57.8125 -78.890625 C 78.21875 -84.566406 88.421875 -96.8125 88.421875 -115.625 Z M 88.421875 -139.765625 "/></g></g></g><g fill="#ffffff" fill-opacity="1"><g transform="translate(149.097116, 311.02892)"><g><path d="M 57.8125 -50.328125 C 57.8125 -36.503906 62.457031 -28.679688 71.75 -26.859375 L 71.75 -19.390625 L 37.40625 0 C 32.414062 -2.039062 27.765625 -5.382812 23.453125 -10.03125 C 19.148438 -14.675781 17 -19.039062 17 -23.125 L 17 -191.46875 C 17 -197.582031 15.976562 -201.941406 13.9375 -204.546875 C 11.894531 -207.160156 8.382812 -208.46875 3.40625 -208.46875 L 3.40625 -217.984375 C 32.875 -233.398438 59.171875 -247.910156 82.296875 -261.515625 L 87.734375 -250.640625 C 85.472656 -249.503906 82.300781 -247.289062 78.21875 -244 C 74.132812 -240.71875 70.734375 -237.375 68.015625 -233.96875 C 61.210938 -225.351562 57.8125 -215.609375 57.8125 -204.734375 L 57.8125 -173.4375 C 78.894531 -187.039062 91.363281 -193.84375 95.21875 -193.84375 C 101.570312 -193.84375 108.601562 -189.703125 116.3125 -181.421875 C 124.019531 -173.148438 127.875 -163.914062 127.875 -153.71875 L 127.875 -116.640625 C 127.875 -114.148438 116.082031 -108.367188 92.5 -99.296875 C 106.78125 -61.441406 120.722656 -39.675781 134.328125 -34 C 138.640625 -31.96875 143.398438 -30.722656 148.609375 -30.265625 L 148.609375 -20.40625 C 127.523438 -6.800781 114.265625 0 108.828125 0 C 101.566406 0 92.328125 -11.050781 81.109375 -33.15625 C 69.890625 -55.257812 62.125 -73.679688 57.8125 -88.421875 Z M 57.8125 -105.078125 C 62.34375 -105.078125 70.503906 -107.914062 82.296875 -113.59375 L 88.421875 -116.640625 L 88.421875 -131.953125 C 88.421875 -151.222656 81.847656 -160.859375 68.703125 -160.859375 L 57.8125 -159.15625 Z M 57.8125 -105.078125 "/></g></g></g></g></g></svg>